<svg width="14" height="18" viewBox="0 0 14 18" fill="none" xmlns="http://www.w3.org/2000/svg">
<path d="M0.211426 1.51628V17.6449C0.211426 17.8409 0.371411 18 0.566551 18H12.4213C12.6173 18 12.7764 17.84 12.7764 17.6449V17.3144H1.72775C1.26888 17.3144 0.897058 16.9408 0.897058 16.4837L0.897937 1.16113H0.567407C0.371383 1.16113 0.212282 1.32112 0.212282 1.51626L0.211426 1.51628Z" fill="black"/>
<path d="M1.72781 0H13.5808C13.7768 0 13.9359 0.159985 13.9359 0.355125V16.4837C13.9359 16.6815 13.7759 16.8415 13.5781 16.8415H1.72788C1.53009 16.8415 1.37012 16.6815 1.37012 16.4837V0.357826C1.37012 0.160042 1.53004 0 1.72781 0Z" fill="black"/>
</svg>
