<svg width="18" height="18" viewBox="0 0 18 18" fill="none" xmlns="http://www.w3.org/2000/svg">
<path d="M2.21387 16.7129L2.19824 10.2832L2.19629 9.7832L1.69629 9.78418L1.27734 9.78516C1.00048 9.78193 0.748889 9.63497 0.610352 9.40234L0.558594 9.29688C0.45394 9.04022 0.492191 8.75105 0.65332 8.5332L0.730469 8.44434L8.44434 0.730469C8.73175 0.442812 9.18772 0.424061 9.49609 0.675781L9.55566 0.730469L17.2695 8.44434C17.4661 8.64092 17.5428 8.92424 17.4775 9.18848L17.4404 9.30078C17.3185 9.59448 17.0313 9.78613 16.7139 9.78613H15.7861V16.7139C15.7861 17.1479 15.434 17.5 15 17.5H11.6426V12.4287C11.6426 11.916 11.2266 11.5 10.7139 11.5H7.28613C6.77342 11.5 6.35742 11.916 6.35742 12.4287V17.5H3C2.56601 17.5 2.21387 17.1479 2.21387 16.7139V16.7129Z" stroke="black"/>
</svg>
