<svg width="18" height="18" viewBox="0 0 18 18" fill="none" xmlns="http://www.w3.org/2000/svg">
<path fill-rule="evenodd" clip-rule="evenodd" d="M11.1429 18H15C15.7102 18 16.2857 17.4244 16.2857 16.7143V10.2857H16.7143C17.2342 10.2857 17.703 9.97243 17.9023 9.492C18.1012 9.01157 17.991 8.45871 17.6233 8.091L9.90903 0.376714C9.40718 -0.125571 8.59289 -0.125571 8.09103 0.376714L0.376748 8.091C0.010319 8.457 -0.100248 9.00686 0.0956088 9.48643C0.291466 9.96557 0.755606 10.2806 1.27375 10.2857L1.69804 10.2844L1.71432 16.7143C1.71432 17.4244 2.28989 18 3.00003 18H6.85718C6.85718 18 6.85718 13.8013 6.85718 12.4286C6.85718 12.192 7.04918 12 7.28575 12C8.10689 12 9.89318 12 10.7143 12C10.9509 12 11.1429 12.192 11.1429 12.4286C11.1429 13.8013 11.1429 18 11.1429 18Z" fill="black"/>
</svg>
