<svg width="14" height="18" viewBox="0 0 14 18" fill="none" xmlns="http://www.w3.org/2000/svg">
<path d="M6.52929 2.66606e-06C4.80094 -0.00156136 3.14298 0.685073 1.92131 1.90666C0.699722 3.12825 0.0130895 4.78621 0.0146511 6.51464C0.0146511 10.8628 4.29109 15.9653 5.91277 17.7263C6.07075 17.8999 6.29442 18 6.52905 18C6.76369 18 6.98733 17.8999 7.14533 17.7263C8.76733 15.9447 13.0435 10.8427 13.0435 6.51464C13.045 4.78629 12.3584 3.12833 11.1368 1.90666C9.91521 0.685073 8.25724 -0.00155895 6.52881 2.66606e-06H6.52929ZM6.52929 9.85863C5.17633 9.85863 3.95786 9.04371 3.44017 7.79401C2.92243 6.54427 3.20868 5.10686 4.16436 4.15115C5.12159 3.19392 6.55904 2.90766 7.80878 3.4254C9.05852 3.94313 9.8734 5.16312 9.8734 6.51452C9.8734 8.36176 8.37653 9.85863 6.52929 9.85863Z" fill="black"/>
</svg>
