<svg width="19" height="18" viewBox="0 0 19 18" fill="none" xmlns="http://www.w3.org/2000/svg">
<path d="M7.0918 0.5C8.67479 0.500085 10.1263 1.06609 11.2646 2.00391L11.1104 2.0498H11.1074C11.0257 2.07272 10.949 2.1049 10.875 2.13965C9.8261 1.33549 8.51586 0.851672 7.0918 0.851562C3.65026 0.851562 0.851562 3.65027 0.851562 7.0918C0.851732 10.5332 3.65037 13.3311 7.0918 13.3311C10.4186 13.3308 13.1436 10.7159 13.3213 7.43262C13.4029 7.58705 13.5102 7.72299 13.6348 7.83887C13.531 8.74131 13.2461 9.5889 12.8145 10.3457L12.6133 10.6973L12.915 10.9668L16.9385 14.5664L16.9482 14.5752C17.2426 14.8432 17.4339 15.2093 17.4854 15.6006L17.498 15.7715C17.5089 16.174 17.3729 16.5697 17.1211 16.8799L17.0068 17.0078C16.6931 17.3215 16.2606 17.4999 15.8174 17.5H15.7783L15.7705 17.499L15.5996 17.4854C15.2601 17.4407 14.939 17.292 14.6855 17.0615L14.5654 16.9404L14.5645 16.9395L10.9648 12.917L10.6953 12.6152L10.3438 12.8154C9.38169 13.3644 8.27346 13.6826 7.09082 13.6826C3.45727 13.6826 0.500254 10.7263 0.5 7.09277C0.5 3.57269 3.27474 0.687104 6.75293 0.508789L7.0918 0.5Z" stroke="black"/>
<path d="M14.6909 0.830811C14.9243 1.60235 15.176 2.18304 15.6138 2.62085C16.0514 3.05843 16.6319 3.30947 17.4028 3.54272C16.6316 3.77607 16.0515 4.02876 15.6138 4.46655C15.1762 4.9042 14.9242 5.4845 14.6909 6.25562C14.4579 5.48424 14.2068 4.90323 13.769 4.46558C13.3311 4.02782 12.7499 3.77607 11.978 3.54272C12.7497 3.30942 13.3304 3.0585 13.7681 2.62085C14.2059 2.183 14.4576 1.6023 14.6909 0.830811Z" stroke="black"/>
<path d="M7.34912 4.37988C7.60088 5.19733 7.87384 5.80889 8.33643 6.27148C8.79901 6.73401 9.41064 7.00608 10.228 7.25781C9.41062 7.50956 8.79902 7.78159 8.33643 8.24414C7.87397 8.70659 7.60081 9.31771 7.34912 10.1348C7.09749 9.31801 6.82605 8.70649 6.36377 8.24414C5.90108 7.78144 5.2889 7.50961 4.47119 7.25781C5.28892 7.006 5.90107 6.73418 6.36377 6.27148C6.82625 5.80898 7.09742 5.19707 7.34912 4.37988Z" stroke="black"/>
</svg>
