<svg width="19" height="18" viewBox="0 0 19 18" fill="none" xmlns="http://www.w3.org/2000/svg">
<path d="M17.2722 14.1939L13.2483 10.5938C13.7573 9.70153 14.0806 8.6911 14.1608 7.61314C13.9312 7.47808 13.7539 7.25946 13.6805 6.99018C13.3369 5.74509 13.1309 5.28336 12.4109 4.9457C12.6793 5.60919 12.8313 6.33262 12.8313 7.09148C12.8313 10.2569 10.2567 12.8315 7.09131 12.8315C3.92592 12.8315 1.35134 10.2569 1.35134 7.09148C1.35134 3.92609 3.92592 1.35151 7.09131 1.35151C8.5238 1.35151 9.83229 1.88246 10.8384 2.75277C10.9532 2.65232 11.0892 2.57466 11.2428 2.53162C11.648 2.4202 11.967 2.32228 12.2287 2.21845C10.9355 0.856025 9.11303 0 7.09144 0C3.18052 0.00168815 0 3.18246 0 7.09231C0 11.0021 3.18073 14.1829 7.09058 14.1829C8.36436 14.1829 9.55797 13.8402 10.592 13.2501L14.1922 17.2732C14.5898 17.7181 15.1604 17.9831 15.7572 17.9992C15.7775 18 15.7969 18 15.8171 18C16.3928 18 16.9525 17.7687 17.3602 17.361C17.7822 16.9389 18.0144 16.3548 17.9983 15.758C17.9823 15.1612 17.7172 14.5914 17.2724 14.193L17.2722 14.1939Z" fill="black"/>
<path d="M17.9594 3.18408C15.9782 2.6371 15.5975 2.25638 15.0505 0.275201C15.0058 0.113129 14.8581 0.00170898 14.6909 0.00170898C14.5238 0.00170898 14.3752 0.113978 14.3313 0.276044C13.7843 2.25638 13.4044 2.63712 11.4224 3.18406C11.2603 3.2288 11.1489 3.37652 11.1489 3.54367C11.1489 3.71081 11.2612 3.85937 11.4233 3.90328C13.4044 4.45026 13.7852 4.83014 14.3313 6.81129C14.376 6.97337 14.5229 7.08563 14.6909 7.08563C14.8589 7.08563 15.0057 6.97421 15.0505 6.81214C15.5975 4.83096 15.9782 4.4502 17.9585 3.90325C18.1206 3.85852 18.2328 3.71164 18.2328 3.54365C18.2328 3.37566 18.1215 3.22884 17.9594 3.18408Z" fill="black"/>
<path d="M10.8945 6.93191C8.70218 6.32666 8.28101 5.90545 7.67572 3.71314C7.6352 3.56626 7.50183 3.46582 7.34989 3.46582C7.19795 3.46582 7.06458 3.56712 7.02406 3.71314C6.41882 5.90545 5.9976 6.32662 3.8053 6.93191C3.65842 6.97243 3.55713 7.1058 3.55713 7.25774C3.55713 7.40968 3.65842 7.54305 3.8053 7.58357C5.9976 8.18882 6.41877 8.61003 7.02406 10.8023C7.06458 10.9492 7.19795 11.0497 7.34989 11.0497C7.50183 11.0497 7.6352 10.9484 7.67572 10.8023C8.28097 8.61003 8.70218 8.18886 10.8945 7.58357C11.0405 7.54305 11.1418 7.40968 11.1418 7.25774C11.1418 7.1058 11.0405 6.97243 10.8945 6.93191Z" fill="black"/>
</svg>
